<?xml version="1.0" standalone="no"?><!DOCTYPE svg PUBLIC "-//W3C//DTD SVG 1.1//EN" "http://www.w3.org/Graphics/SVG/1.1/DTD/svg11.dtd"><svg class="icon" width="200px" height="200.00px" viewBox="0 0 1024 1024" version="1.1" xmlns="http://www.w3.org/2000/svg"><path d="M283.43 683.43c-7.68 0-15.35-2.93-21.21-8.79L120.79 533.21c-11.72-11.71-11.72-30.71 0-42.42 11.72-11.72 30.7-11.72 42.42 0l141.43 141.43c11.72 11.72 11.72 30.7 0 42.42a29.91 29.91 0 0 1-21.21 8.79zM142 542c-7.68 0-15.35-2.93-21.21-8.79-11.72-11.71-11.72-30.71 0-42.42l141.43-141.43c11.72-11.72 30.7-11.72 42.42 0 11.72 11.71 11.72 30.71 0 42.42L163.21 533.21A29.893 29.893 0 0 1 142 542zM882 542H342c-16.57 0-30-13.43-30-30s13.43-30 30-30h540c16.56 0 30 13.43 30 30s-13.44 30-30 30zM912 182H112c-16.57 0-30-13.43-30-30s13.43-30 30-30h800c16.56 0 30 13.43 30 30s-13.44 30-30 30zM912 902H112c-16.57 0-30-13.44-30-30s13.43-30 30-30h800c16.56 0 30 13.44 30 30s-13.44 30-30 30z" /></svg>