<?xml version="1.0" standalone="no"?><!DOCTYPE svg PUBLIC "-//W3C//DTD SVG 1.1//EN" "http://www.w3.org/Graphics/SVG/1.1/DTD/svg11.dtd"><svg class="icon" width="200px" height="200.00px" viewBox="0 0 1024 1024" version="1.1" xmlns="http://www.w3.org/2000/svg"><path d="M740.57 683.43c-7.68 0-15.35-2.93-21.21-8.79-11.72-11.72-11.72-30.7 0-42.42l141.43-141.43c11.72-11.72 30.7-11.72 42.42 0 11.72 11.71 11.72 30.71 0 42.42L761.79 674.64c-5.86 5.86-13.54 8.79-21.22 8.79zM882 542c-7.68 0-15.35-2.93-21.21-8.79L719.36 391.79c-11.72-11.71-11.72-30.71 0-42.42 11.72-11.72 30.7-11.72 42.42 0L903.21 490.8c11.72 11.71 11.72 30.71 0 42.42A29.924 29.924 0 0 1 882 542zM682 542H142c-16.57 0-30-13.43-30-30s13.43-30 30-30h540c16.56 0 30 13.43 30 30s-13.44 30-30 30zM912 182H112c-16.57 0-30-13.43-30-30s13.43-30 30-30h800c16.56 0 30 13.43 30 30s-13.44 30-30 30zM912 902H112c-16.57 0-30-13.44-30-30s13.43-30 30-30h800c16.56 0 30 13.44 30 30s-13.44 30-30 30z" /></svg>