<?xml version="1.0" standalone="no"?><!DOCTYPE svg PUBLIC "-//W3C//DTD SVG 1.1//EN" "http://www.w3.org/Graphics/SVG/1.1/DTD/svg11.dtd"><svg class="icon" width="200px" height="176.70px" viewBox="0 0 1159 1024" version="1.1" xmlns="http://www.w3.org/2000/svg"><path d="M983.982645 819.683304c25.663132 0 38.982985 13.079712 39.959561 39.223127l0.064038 3.201888c0 28.28868-13.335863 42.425015-40.023599 42.425014h-880.519174c-25.663132 0-38.982985-13.079712-39.959561-39.223127L63.439873 862.108319c0-28.28868 13.335863-42.425015 40.023598-42.425015h880.519174zM85.308767 316.282487l213.726018 160.606698a15.080892 15.080892 0 0 1 5.811426 12.007079 15.080892 15.080892 0 0 1-5.811426 12.00708L85.308767 661.365956a13.175769 13.175769 0 0 1-14.408496 1.024604 14.808732 14.808732 0 0 1-7.42838-13.143749V328.401633a14.808732 14.808732 0 0 1 7.42838-13.159759 13.175769 13.175769 0 0 1 14.408496 1.040613zM983.982645 565.133215c25.663132 0 38.982985 13.079712 39.959561 39.223127l0.064038 3.201888c0 28.28868-13.335863 42.425015-40.023599 42.425015h-560.330383c-25.663132 0-38.982985-13.079712-39.959561-39.223127l-0.064038-3.201888c0-28.28868 13.335863-42.425015 40.023599-42.425015h560.330383z m0-254.550088c25.663132 0 38.982985 13.079712 39.959561 39.223127l0.064038 3.201888c0 28.28868-13.335863 42.425015-40.023599 42.425014h-560.330383c-25.663132 0-38.982985-13.079712-39.959561-39.223127l-0.064038-3.201887c0-28.28868 13.335863-42.425015 40.023599-42.425015h560.330383z m0-254.550089c25.663132 0 38.982985 13.079712 39.959561 39.223127l0.064038 3.201888c0 28.28868-13.335863 42.425015-40.023599 42.425015h-880.519174C77.80034 140.883068 64.480486 127.803356 63.50391 101.659941L63.439873 98.458053C63.439873 70.169373 76.775736 56.033038 103.463471 56.033038h880.519174z" fill="#4D4D4D" /></svg>