<?xml version="1.0" standalone="no"?><!DOCTYPE svg PUBLIC "-//W3C//DTD SVG 1.1//EN" "http://www.w3.org/Graphics/SVG/1.1/DTD/svg11.dtd"><svg class="icon" width="200px" height="200.00px" viewBox="0 0 1024 1024" version="1.1" xmlns="http://www.w3.org/2000/svg"><path d="M722.624 73.856A35.2 35.2 0 0 0 698.24 64H192a64 64 0 0 0-64 64v768a64 64 0 0 0 64 64h640a64 64 0 0 0 64-64V256.64a34.304 34.304 0 0 0-10.432-24.576l-162.944-158.208zM832 896H192V127.808h424.704v143.04c0 37.952 31.36 68.864 69.76 68.864H832V896z m-145.472-625.28V127.872L832 270.72h-145.472zM308.8 448h201.728a32 32 0 0 0 0-64H308.8a32 32 0 0 0 0 64z m0 256h411.136a32 32 0 1 0 0-64H308.8a32 32 0 0 0 0 64z" fill="#5C5C5C" /></svg>