<?xml version="1.0" standalone="no"?><!DOCTYPE svg PUBLIC "-//W3C//DTD SVG 1.1//EN" "http://www.w3.org/Graphics/SVG/1.1/DTD/svg11.dtd"><svg class="icon" width="200px" height="200.00px" viewBox="0 0 1024 1024" version="1.1" xmlns="http://www.w3.org/2000/svg"><path d="M793.728 214.208v-54.4a145.92 145.92 0 0 1 83.84 131.84h73.6c0-99.2-66.56-183.68-157.44-210.56a224 224 0 0 0-62.08-8.96h-79.36l141.44 142.08z m157.312 188.288H621.44v-329.6c0-40.32-32.64-72.96-72.96-72.96H72.96C32.64-0.064 0 32.576 0 72.896v475.52c0 40.96 32.64 72.96 72.96 72.96h329.6v329.6c0 40.32 32.64 72.96 72.96 72.96h475.52c40.32 0 72.96-32.64 72.96-72.96v-475.52c0-40.96-32.64-72.96-72.96-72.96zM109.44 548.416c-19.84 0-36.48-16.64-36.48-36.48v-402.56c0-9.6 3.84-18.56 10.88-25.6a35.84 35.84 0 0 1 25.6-10.88H512c9.6 0 19.2 3.84 25.6 10.88 7.04 7.04 10.88 16 10.88 25.6v402.56c0 9.6-3.84 19.2-10.88 25.6-6.4 7.04-16 10.88-25.6 10.88H109.44z m841.6 366.08c0 19.84-16.64 36.48-36.48 36.48H512a36.48 36.48 0 0 1-36.48-36.48v-293.12h72.96c40.96 0 72.96-32.64 72.96-72.96v-72.96h293.12c19.84 0 36.48 16 36.48 36.48v402.56zM230.4 808.896v54.4a145.92 145.92 0 0 1-83.84-131.84H72.96c0 99.2 66.56 183.68 157.44 210.56 19.84 5.76 40.96 8.96 62.08 8.96h79.36l-141.44-142.08z m460.16-224l-105.6 290.56h60.16l21.76-60.8h114.56l22.4 61.44h62.72l-102.4-291.2h-73.6z m-8.32 181.12l42.88-124.16h1.28l39.68 124.16h-83.84z m-348.8-600.32c0-11.52 1.28-21.76 4.48-30.08 0.64-1.28 1.28-3.2 1.92-4.48 0-1.28-3.84-1.92-11.52-3.2H275.2v76.8H146.56v184.32h53.12v-28.8h76.8v135.68h56.96v-135.68h78.72v23.68h57.6v-179.2H333.44v-39.04z m-56.96 152.32h-76.8v-69.12h76.8v69.12z m135.68-69.12v69.12H333.44v-69.12h78.72z m352 336h-73.6l-105.6 290.56h60.16l21.76-60.8h114.56l22.4 61.44h62.72l-102.4-291.2z m-81.92 181.12l42.88-124.16h1.28l39.68 124.16h-83.84z m-348.8-561.28v-39.04c0-11.52 1.28-21.76 4.48-30.08 0.64-1.28 1.28-3.2 1.92-4.48 0-1.28-3.84-1.92-11.52-3.2H275.2v76.8H146.56v184.32h53.12v-28.8h76.8v135.68h56.96v-135.68h78.72v23.68h57.6v-179.2H333.44z m-56.96 113.28h-76.8v-69.12h76.8v69.12z m135.68 0H333.44v-69.12h78.72v69.12z m-78.72-113.28v-39.04c0-11.52 1.28-21.76 4.48-30.08 0.64-1.28 1.28-3.2 1.92-4.48 0-1.28-3.84-1.92-11.52-3.2H275.2v76.8H146.56v184.32h53.12v-28.8h76.8v135.68h56.96v-135.68h78.72v23.68h57.6v-179.2H333.44z m-56.96 113.28h-76.8v-69.12h76.8v69.12z m135.68 0H333.44v-69.12h78.72v69.12z m352 266.88h-73.6l-105.6 290.56h60.16l21.76-60.8h114.56l22.4 61.44h62.72l-102.4-291.2z m-81.92 181.12l42.88-124.16h1.28l39.68 124.16h-83.84z" fill="#454859" /></svg>