<?xml version="1.0" standalone="no"?><!DOCTYPE svg PUBLIC "-//W3C//DTD SVG 1.1//EN" "http://www.w3.org/Graphics/SVG/1.1/DTD/svg11.dtd"><svg class="icon" width="200px" height="200.00px" viewBox="0 0 1024 1024" version="1.1" xmlns="http://www.w3.org/2000/svg"><path d="M284.16 886.784c0 36.864 29.696 66.56 66.56 66.56s66.56-29.696 66.56-66.56-29.696-66.56-66.56-66.56-66.56 29.696-66.56 66.56zM808.96 886.784c0 36.864 29.696 66.56 66.56 66.56s66.56-29.696 66.56-66.56-29.696-66.56-66.56-66.56-66.56 29.696-66.56 66.56zM535.04 770.56H348.672c-65.536-7.68-116.736-60.416-122.368-126.464 0-2.56-41.984-297.984-55.808-423.936-0.512-29.696-12.288-57.856-33.28-78.848-7.168-5.12-15.872-8.192-24.576-8.192H31.232C13.824 133.12 0 119.296 0 101.888s13.824-31.232 31.232-31.232h74.24c24.576-2.048 49.152 5.632 68.608 20.48 34.816 30.72 55.808 74.24 57.344 120.832 15.36 126.464 55.296 421.376 55.808 421.376 0.512 0 8.192 69.12 65.536 73.728 64 3.584 584.192 0 590.336 0 16.384-0.512 30.208 12.8 30.72 29.184v1.024c0 16.896-13.312 30.72-30.208 30.72-15.872 1.024-238.08 2.56-408.576 2.56z" fill="#727171" /><path d="M249.856 589.824s424.96-6.144 543.744-13.312 134.144-70.656 134.144-70.656 49.152-187.392 62.976-259.584c19.456-106.496-74.752-91.136-74.752-91.136H196.608l53.248 434.688z" fill="#727171" /><path d="M223.232 619.008l-61.44-494.592h752.128c30.72-4.096 61.44 5.12 84.48 26.112 23.552 28.16 31.744 66.56 20.992 101.376-13.824 72.192-60.928 252.928-63.488 261.632-2.048 8.192-23.552 84.48-161.28 93.184-118.272 7.68-527.872 13.312-545.28 13.824l-26.112-1.536z m8.192-435.2l46.08 372.736c96.256 0 415.744-6.656 514.56-13.312 91.136-6.144 104.96-46.08 105.472-47.616 0.512-1.536 48.64-184.832 61.952-256.512 5.632-15.872 3.584-32.768-4.608-47.104-9.728-7.168-22.016-9.728-33.792-8.192H231.424z" fill="#727171" /></svg>