<?xml version="1.0" standalone="no"?><!DOCTYPE svg PUBLIC "-//W3C//DTD SVG 1.1//EN" "http://www.w3.org/Graphics/SVG/1.1/DTD/svg11.dtd"><svg class="icon" width="200px" height="72.73px" viewBox="0 0 2816 1024" version="1.1" xmlns="http://www.w3.org/2000/svg"><path d="M2202.9312 0c282.7776 0 512 229.2224 512 512s-229.2224 512-512 512h-1638.4c-282.7264 0-512-229.2224-512-512s229.2736-512 512-512h1638.4z m0 51.2h-1638.4a460.8 460.8 0 0 0-13.568 921.3952l13.568 0.2048h1638.4a460.8 460.8 0 0 0 13.6192-921.3952L2202.9312 51.2z" fill="#BABABA" /><path d="M996.5568 25.6a484.864 484.864 0 0 1 343.9104 142.4384A484.864 484.864 0 0 1 1482.9568 512a484.864 484.864 0 0 1-142.4896 343.9616 484.864 484.864 0 0 1-327.168 142.1312l-16.7424 0.3072h-432.0256a484.864 484.864 0 0 1-343.9104-142.4384A484.864 484.864 0 0 1 78.1312 512 484.864 484.864 0 0 1 220.672 168.0384a484.864 484.864 0 0 1 327.168-142.1312L564.5824 25.6h432.0256z m-283.5968 160.256a338.176 338.176 0 0 0-213.8112 142.2336 329.4208 329.4208 0 0 0 42.8032 419.3792 338.9952 338.9952 0 0 0 238.592 97.3312 339.5584 339.5584 0 0 0 186.2656-55.1936 335.1552 335.1552 0 0 0 124.8768-148.224c8.704-20.224 15.2576-41.216 19.712-62.6176a288.1024 288.1024 0 0 1-164.4544 50.9952 287.9488 287.9488 0 0 1-202.6496-82.6368 278.3744 278.3744 0 0 1-61.44-308.224c7.9872-18.4832 18.0224-36.3008 30.1056-52.992z" fill="#BABABA" /><path d="M2002.432 766.464a25.6 25.6 0 0 1 25.6 25.6v102.0416a25.6 25.6 0 0 1-51.2 0V792.064a25.6 25.6 0 0 1 25.6-25.6z m-156.8256-64.9728a25.6 25.6 0 0 1 0 36.1984l-72.1408 72.192a25.6 25.6 0 0 1-36.1984-36.2496l72.1408-72.1408a25.6 25.6 0 0 1 36.1984 0z m349.952 0l72.1408 72.192a25.6 25.6 0 0 1-36.2496 36.1472l-72.1408-72.1408a25.6 25.6 0 0 1 36.2496-36.1984z m-193.0752-347.648a190.7712 190.7712 0 1 1 0 381.5424 190.7712 190.7712 0 0 1 0-381.4912z m-247.4496 165.1712a25.6 25.6 0 1 1 0 51.2h-102.0416a25.6 25.6 0 0 1 0-51.2h102.0416z m596.8896 0a25.6 25.6 0 0 1 0 51.2h-102.0416a25.6 25.6 0 0 1 0-51.2h102.0416z m-84.224-239.616a25.6 25.6 0 0 1 0 36.2496l-72.192 72.1408a25.6 25.6 0 0 1-36.1984-36.1984l72.192-72.192a25.6 25.6 0 0 1 36.1984 0z m-494.2336 0l72.192 72.192a25.6 25.6 0 0 1-36.2496 36.1984l-72.192-72.192a25.6 25.6 0 0 1 36.2496-36.1472z m229.0176-109.824a25.6 25.6 0 0 1 25.6 25.6v102.0416a25.6 25.6 0 0 1-51.2 0V195.1744a25.6 25.6 0 0 1 25.6-25.6z" fill="#BABABA" /></svg>