<?xml version="1.0" standalone="no"?><!DOCTYPE svg PUBLIC "-//W3C//DTD SVG 1.1//EN" "http://www.w3.org/Graphics/SVG/1.1/DTD/svg11.dtd"><svg class="icon" width="200px" height="200.00px" viewBox="0 0 1024 1024" version="1.1" xmlns="http://www.w3.org/2000/svg"><path d="M507.543 643.146c51.361 8.432 243.154 95.647 243.156 191.274H104.545c0-95.627 191.794-182.842 243.15-191.274 15.952-2.607 16.317-47.815 16.317-47.815s-46.853-47.817-57.07-112.12c-27.47 0-44.432-68.357-16.962-92.41-1.144-25.315-35.31-198.758 137.643-198.758 172.957 0 138.786 173.444 137.644 198.759 27.466 24.052 10.502 92.41-16.964 92.41-10.213 64.3-57.068 112.119-57.068 112.119s0.358 45.209 16.308 47.815z m182.631-11.164c-15.042-2.454-15.381-45.083-15.381-45.083s44.179-45.097 53.81-105.729c25.9 0 41.898-64.467 15.999-87.144 1.079-23.871 33.291-187.425-129.796-187.425-16.356 0-30.743 1.648-43.398 4.637 70.748 48.002 50.11 156.22 49.227 175.808 27.467 24.052 10.5 92.41-16.97 92.41-7.914 49.852-37.846 89.793-50.903 105.23-0.823 2.296-1.925 7.45-1.925 7.45s-2.208 15.614-0.954 27.689c2.315 9.72 6.276 18.46 13.032 19.565 48.057 7.894 247.24 116.336 240.855 193.372h115.685c0.001-90.185-180.85-192.833-229.28-200.78z" fill="#333333" /></svg>