<?xml version="1.0" standalone="no"?><!DOCTYPE svg PUBLIC "-//W3C//DTD SVG 1.1//EN" "http://www.w3.org/Graphics/SVG/1.1/DTD/svg11.dtd"><svg class="icon" width="200px" height="108.99px" viewBox="0 0 1879 1024" version="1.1" xmlns="http://www.w3.org/2000/svg"><path d="M411.523699 77.835838l-0.591907 266.210405c0 8.730636 3.403468 17.017341 9.618497 23.23237 6.215029 6.215029 14.649711 9.766474 23.528324 9.766474 16.869364 0 30.927168-12.430058 32.850867-29.003469l0.591907-193.84971 289.738729 297.433526c12.873988 12.873988 33.886705 12.873988 46.760693-0.147977 12.873988-12.873988 13.021965-33.886705 0.147977-46.760694l-289.738728-297.433526 191.334104-0.443931C730.265896 102.104046 739.884393 89.526012 739.884393 75.024277c0-8.730636-3.551445-16.869364-9.766474-23.232369-6.954913-6.954913-16.425434-10.802312-26.487861-10.802313H677.734104l7.694798 0.147977-13.317919-0.147977-224.036995 0.443931c-9.174566 0-17.757225 3.995376-24.268208 11.246243l-0.44393 0.44393-0.443931 0.443931c-7.398844 6.510983-11.39422 15.241618-11.39422 24.268208m0 0zM1431.676301 980.938728c9.174566 0 17.757225-3.995376 24.268208-11.246242l0.44393-0.443931 0.443931-0.443931c7.250867-6.510983 11.246243-15.093642 11.246243-24.268208l0.44393-224.184971-0.147977-13.317919 0.147977 7.694798v-30.187284c0-10.210405-3.847399-19.532948-10.802312-26.487861-6.363006-6.363006-14.501734-9.766474-23.23237-9.766474-14.501734 0-27.227746 9.618497-31.963006 24.120231l-0.44393 195.625434L1109.82659 573.262428c-12.873988-12.873988-33.738728-12.873988-46.760694 0.147977-12.873988 12.873988-13.021965 33.886705-0.147977 46.760693l292.254335 294.917919-193.849711 0.591908c-16.57341 1.923699-29.003468 15.981503-29.003468 32.850867 0 8.878613 3.403468 17.165318 9.766474 23.528324 6.215029 6.215029 14.501734 9.618497 23.23237 9.618497l266.358382-0.739885m0 0zM446.446243 982.862428l266.210404 0.591907c8.730636 0 17.017341-3.403468 23.23237-9.618497 6.215029-6.215029 9.766474-14.649711 9.766474-23.528324 0-16.869364-12.430058-30.927168-29.003468-32.850867l-193.849711-0.591907L814.020809 618.543353c12.873988-12.873988 12.873988-33.886705-0.147977-46.760694-12.873988-12.873988-33.886705-13.021965-46.760693-0.147977L476.041618 870.104046l-0.44393-198.584971c-4.73526-14.501734-17.461272-24.120231-31.963006-24.120231-8.730636 0-16.869364 3.551445-23.23237 9.766474-6.954913 6.954913-10.802312 16.425434-10.802312 26.487861v25.895954l0.147977-7.694798-0.147977 13.317919 0.443931 231.287862c0 9.174566 3.995376 17.757225 11.246242 24.268208l0.443931 0.44393 0.443931 0.443931c6.510983 7.250867 15.093642 11.246243 24.268208 11.246243m0 0zM1431.084393 41.137572l-266.210405-0.591907c-8.730636 0-17.017341 3.403468-23.23237 9.618497-6.215029 6.215029-9.766474 14.649711-9.766473 23.528324 0 16.869364 12.430058 30.927168 29.003468 32.850867l193.849711 0.591907-291.662428 297.72948c-12.873988 12.873988-12.873988 33.886705 0.147977 46.760694 12.873988 12.873988 33.886705 13.021965 46.760693 0.147976L1401.636994 153.895954l0.443931 198.584971c4.73526 14.501734 17.461272 24.120231 31.963006 24.120231 8.730636 0 16.869364-3.551445 23.23237-9.766474 6.954913-6.954913 10.802312-16.425434 10.802312-26.487861v-25.895954l-0.147977 7.694798 0.147977-13.317919-0.443931-231.287862c0-9.174566-3.995376-17.757225-11.246243-24.268208l-0.44393-0.44393-0.443931-0.443931c-6.510983-7.250867-15.241618-11.246243-24.416185-11.246243m0 0z" fill="#212121" /></svg>