<?xml version="1.0" standalone="no"?><!DOCTYPE svg PUBLIC "-//W3C//DTD SVG 1.1//EN" "http://www.w3.org/Graphics/SVG/1.1/DTD/svg11.dtd"><svg class="icon" width="200px" height="200.00px" viewBox="0 0 1024 1024" version="1.1" xmlns="http://www.w3.org/2000/svg"><path d="M576 576h213.333333v85.333333H576z" fill="#444444" /><path d="M259.663235 199.314831l181.019336 181.019336-60.339779 60.339779L199.323456 259.65461z" fill="#444444" /><path d="M583.319781 380.333193l181.019336-181.019336 60.339779 60.339779L643.65956 440.672972z" fill="#444444" /><path d="M440.691443 643.656961l-181.019336 181.019336-60.339779-60.339779L380.351664 583.317182z" fill="#444444" /><path d="M764.330245 824.67062l-181.019336-181.019336 60.339778-60.339779L824.670023 764.330841z" fill="#444444" /><path d="M576 362.666667h213.333333v85.333333H576z" fill="#444444" /><path d="M661.333333 576l0 213.333333-85.333333 0L576 576z" fill="#444444" /><path d="M234.666667 576h213.333333v85.333333H234.666667z" fill="#444444" /><path d="M448 576l0 213.333333-85.333333 0L362.666667 576z" fill="#444444" /><path d="M234.666667 362.666667h213.333333v85.333333H234.666667z" fill="#444444" /><path d="M448 234.666667l0 213.333333-85.333333 0L362.666667 234.666667z" fill="#444444" /><path d="M661.333333 234.666667l0 213.333333-85.333333 0L576 234.666667z" fill="#444444" /></svg>