<?xml version="1.0" standalone="no"?><!DOCTYPE svg PUBLIC "-//W3C//DTD SVG 1.1//EN" "http://www.w3.org/Graphics/SVG/1.1/DTD/svg11.dtd"><svg class="icon" width="200px" height="200.00px" viewBox="0 0 1024 1024" version="1.1" xmlns="http://www.w3.org/2000/svg"><path d="M0 0h1024v73.142857H0zM0 950.857143h1024v73.142857H0zM0 73.142857h73.142857v877.714286H0zM950.857143 73.142857h73.142857v877.714286h-73.142857zM438.857143 438.857143H365.714286V219.428571h73.142857z" fill="#4C5561" /><path d="M438.857143 438.857143H219.428571V365.714286h219.428572z" fill="#4C5561" /><path d="M387.145143 438.857143L180.224 231.862857l51.785143-51.712L438.857143 387.145143zM585.142857 438.857143V365.714286h219.428572v73.142857z" fill="#4C5561" /><path d="M585.142857 438.857143V219.428571h73.142857v219.428572z" fill="#4C5561" /><path d="M585.142857 387.145143l206.921143-206.921143 51.712 51.785143L636.854857 438.857143z" fill="#4C5561" /><path d="M438.857143 585.142857v73.142857H219.428571V585.142857z" fill="#4C5561" /><path d="M438.857143 585.142857v219.428572H365.714286V585.142857z" fill="#4C5561" /><path d="M438.857143 636.854857L231.862857 843.776l-51.712-51.785143L387.145143 585.142857z" fill="#4C5561" /><path d="M585.142857 585.142857h73.142857v219.428572H585.142857z" fill="#4C5561" /><path d="M585.142857 585.142857h219.428572v73.142857H585.142857z" fill="#4C5561" /><path d="M636.854857 585.142857l206.921143 206.921143-51.785143 51.712L585.142857 636.854857z" fill="#4C5561" /></svg>