<?xml version="1.0" standalone="no"?><!DOCTYPE svg PUBLIC "-//W3C//DTD SVG 1.1//EN" "http://www.w3.org/Graphics/SVG/1.1/DTD/svg11.dtd"><svg class="icon" width="200px" height="200.00px" viewBox="0 0 1024 1024" version="1.1" xmlns="http://www.w3.org/2000/svg"><path d="M71.84 96h876.768c26.56 0 39.84 13.28 39.84 39.84 0 26.56-13.28 39.872-39.84 39.872H71.84C45.28 175.68 32 162.432 32 135.84 32 109.28 45.28 96 71.84 96z m0 717.344h876.768c26.56 0 39.84 13.28 39.84 39.84 0 26.56-13.28 39.872-39.84 39.872H71.84c-26.56 0-39.84-13.28-39.84-39.872 0-26.56 13.28-39.84 39.84-39.84z m318.816-239.104h557.952c26.56 0 39.84 13.28 39.84 39.84 0 26.56-13.28 39.84-39.84 39.84H390.656c-26.56 0-39.84-13.28-39.84-39.84 0-26.56 13.28-39.84 39.84-39.84z m0-239.136h557.952c26.56 0 39.84 13.28 39.84 39.872 0 26.56-13.28 39.84-39.84 39.84H390.656c-26.56 0-39.84-13.28-39.84-39.84 0-26.56 13.28-39.872 39.84-39.872zM37.792 513.92a13.888 13.888 0 0 1 0-22.56l212.8-150.848a13.76 13.76 0 0 1 21.76 11.36v301.408a13.76 13.76 0 0 1-21.76 11.392l-212.8-150.752z" fill="#283641" /></svg>