<?xml version="1.0" standalone="no"?><!DOCTYPE svg PUBLIC "-//W3C//DTD SVG 1.1//EN" "http://www.w3.org/Graphics/SVG/1.1/DTD/svg11.dtd"><svg t="1714381977710" class="icon" viewBox="0 0 1024 1024" version="1.1" xmlns="http://www.w3.org/2000/svg" p-id="814" xmlns:xlink="http://www.w3.org/1999/xlink" width="200" height="200"><path d="M972.9024 699.1872c0 33.3824-24.064 60.3136-63.8976 59.6992-19.968-0.1024-18.432 0.4096-36.6592 0-31.9488-0.7168-29.9008-20.0704-40.2432-59.6992-25.6-97.3824-133.7344-224.9728-158.4128-239.7184-65.024-38.912 17.5104-13.0048 17.5104-138.1376 0-32.0512-7.2704-72.3968-20.3776-99.5328-10.24-21.2992-18.6368-40.8576 20.3776-39.6288 77.7216 2.4576 140.9024 62.3616 140.9024 139.1616 0 48.2304-24.7808 90.624-62.464 115.6096 7.3728 1.7408 14.848 3.4816 23.1424 5.632C896.1024 472.7808 972.9024 595.968 972.9024 699.1872z m-206.1312 68.3008c-0.3072 31.9488-14.0288 63.6928-68.1984 63.6928-121.9584-0.1024-464.0768 0.4096-523.1616 0-66.1504-0.512-68.1984-33.0752-68.1984-63.6928 0-147.3536 100.5568-279.4496 235.52-317.44-59.392-31.744-89.1904-90.8288-89.1904-159.232 0-99.7376 82.2272-180.9408 183.296-180.9408s183.296 81.2032 183.296 180.9408c0 68.4032-32.5632 127.3856-92.0576 159.232 135.168 37.9904 240.128 171.3152 238.6944 317.44z m0 0" fill="#2ABB9B" p-id="815"></path></svg>