<?xml version="1.0" standalone="no"?><!DOCTYPE svg PUBLIC "-//W3C//DTD SVG 1.1//EN" "http://www.w3.org/Graphics/SVG/1.1/DTD/svg11.dtd"><svg class="icon" width="200px" height="200.00px" viewBox="0 0 1024 1024" version="1.1" xmlns="http://www.w3.org/2000/svg"><path d="M512 1024C230.4 1024 0 793.6 0 512S230.4 0 512 0s512 230.4 512 512-230.4 512-512 512z m0-938.666667C277.333333 85.333333 85.333333 277.333333 85.333333 512s192 426.666667 426.666667 426.666667 426.666667-192 426.666667-426.666667S746.666667 85.333333 512 85.333333z" fill="#374151" /><path d="M631.466667 635.733333H768v76.8h-136.533333v76.8h-89.6v-76.8H418.133333v-46.933333c-93.866667 89.6-110.933333 106.666667-119.466666 123.733333v-4.266666c-8.533333-17.066667-29.866667-46.933333-42.666667-55.466667 12.8-12.8 29.866667-38.4 29.866667-72.533333v-166.4H226.133333V409.6h145.066667v200.533333l21.333333-21.333333c8.533333 17.066667 17.066667 42.666667 25.6 59.733333v-12.8h123.733334v-25.6h-102.4v-76.8h102.4v-42.666666h89.6v42.666666h102.4v76.8h-102.4v25.6zM307.2 388.266667c-12.8-29.866667-42.666667-76.8-64-115.2l68.266667-42.666667c21.333333 34.133333 55.466667 81.066667 68.266666 110.933333L307.2 388.266667z m473.6-115.2c-25.6 51.2-64 93.866667-106.666667 132.266666 38.4 12.8 76.8 25.6 123.733334 34.133334-17.066667 17.066667-42.666667 51.2-55.466667 76.8-55.466667-12.8-102.4-34.133333-145.066667-59.733334-51.2 25.6-106.666667 46.933333-162.133333 64-8.533333-21.333333-29.866667-59.733333-46.933333-76.8 46.933333-8.533333 93.866667-25.6 136.533333-42.666666-25.6-25.6-46.933333-51.2-68.266667-81.066667h-38.4V247.466667h290.133334l17.066666-4.266667 55.466667 29.866667z m-234.666667 51.2c12.8 12.8 29.866667 29.866667 46.933334 42.666666 17.066667-12.8 38.4-25.6 51.2-42.666666h-98.133334z" fill="#374151" /></svg>