<?xml version="1.0" standalone="no"?><!DOCTYPE svg PUBLIC "-//W3C//DTD SVG 1.1//EN" "http://www.w3.org/Graphics/SVG/1.1/DTD/svg11.dtd"><svg class="icon" width="200px" height="200.00px" viewBox="0 0 1024 1024" version="1.1" xmlns="http://www.w3.org/2000/svg"><path d="M89.6 400l297.6 1.6c9.6 0 19.2-3.2 25.6-11.2 6.4-6.4 11.2-16 11.2-25.6V80c0-20.8-16-36.8-36.8-36.8s-36.8 16-36.8 36.8v204.8L121.6 54.4c-6.4-6.4-16-9.6-25.6-9.6-9.6 0-17.6 3.2-25.6 9.6-6.4 6.4-9.6 16-9.6 25.6 0 9.6 3.2 19.2 11.2 25.6l220.8 222.4H89.6c-19.2 0-36.8 16-36.8 36.8 0 19.2 16 35.2 36.8 35.2zM620.8 392c6.4 6.4 16 11.2 25.6 11.2l297.6-1.6c20.8 0 36.8-16 36.8-36.8 0-20.8-16-36.8-36.8-36.8H742.4L963.2 107.2c6.4-6.4 11.2-16 11.2-25.6 0-9.6-3.2-19.2-11.2-25.6-6.4-6.4-16-11.2-25.6-11.2-9.6 0-19.2 3.2-25.6 11.2L683.2 286.4V81.6c0-20.8-16-36.8-36.8-36.8s-36.8 16-36.8 36.8v284.8c1.6 9.6 4.8 19.2 11.2 25.6zM88 689.6l201.6-1.6L68.8 910.4c-6.4 6.4-11.2 16-11.2 25.6 0 9.6 3.2 19.2 11.2 25.6 6.4 6.4 16 11.2 25.6 11.2 9.6 0 19.2-3.2 25.6-11.2l228.8-230.4v204.8c0 20.8 16 36.8 36.8 36.8 20.8 0 36.8-16 36.8-36.8V651.2c0-9.6-3.2-19.2-11.2-25.6-6.4-6.4-16-11.2-25.6-11.2l-297.6 1.6c-20.8 0-36.8 16-36.8 36.8 1.6 20.8 17.6 36.8 36.8 36.8zM646.4 972.8c20.8 0 36.8-16 36.8-36.8V731.2L912 961.6c6.4 6.4 16 11.2 25.6 11.2 9.6 0 19.2-3.2 25.6-11.2 6.4-6.4 11.2-16 11.2-25.6 0-9.6-3.2-19.2-11.2-25.6L742.4 688H944c19.2 0 36.8-16 36.8-36.8 0-20.8-16-36.8-36.8-36.8l-297.6-1.6c-9.6 0-19.2 3.2-25.6 11.2-6.4 6.4-11.2 16-11.2 25.6v284.8c0 22.4 17.6 38.4 36.8 38.4z" /></svg>