<?xml version="1.0" standalone="no"?><!DOCTYPE svg PUBLIC "-//W3C//DTD SVG 1.1//EN" "http://www.w3.org/Graphics/SVG/1.1/DTD/svg11.dtd"><svg class="icon" width="200px" height="200.00px" viewBox="0 0 1024 1024" version="1.1" xmlns="http://www.w3.org/2000/svg"><path d="M510.3 508.2m-227.2 0a227.2 227.2 0 1 0 454.4 0 227.2 227.2 0 1 0-454.4 0Z" fill="#EEEEEE" /><path d="M514.5 244.8c6.1 0 12.1 0.2 18 0.6 13.3 0.9 23.3-12.1 18.5-24.6-4.6-12.2-8.9-25.4-12.3-39.7-8.2-33.7-11.5-67.4-12.6-94.9-0.7-16.8-23.3-21.5-30.7-6.5-12.4 25.4-26.1 57.5-36.1 92.6-5.9 20.7-9.6 39.5-11.9 56.1-1.7 12.2 9.1 22.6 21.2 20.4 14.9-2.6 30.2-4 45.9-4zM688.5 302.2c12.4 8.6 24.3 18.5 35.4 29.5 4.3 4.3 8.4 8.7 12.3 13.2 8.8 10.1 25 7.9 30.5-4.3 5.3-11.9 11.7-24.2 19.4-36.8 18-29.6 39.5-55.8 58.2-76.1 11.4-12.3-1.2-31.7-17.1-26.3-26.7 9.1-59.1 22.2-91 40-18.8 10.5-34.8 21.2-48.1 31.3-9.9 7.4-9.7 22.4 0.4 29.5zM551.2 767.6c-14.9 2.7-30.2 4.1-45.9 4.1-6.1 0-12.1-0.2-18-0.6-13.3-0.9-23.3 12.1-18.5 24.6 4.6 12.2 8.9 25.4 12.3 39.7 8.2 33.7 11.5 67.4 12.6 94.9 0.7 16.8 23.3 21.5 30.7 6.5 12.4-25.4 26.1-57.5 36.1-92.6 5.9-20.7 9.6-39.5 11.9-56.1 1.6-12.2-9.1-22.7-21.2-20.5zM331.2 714.3c-12.4-8.6-24.3-18.5-35.4-29.5-4.3-4.3-8.4-8.7-12.3-13.2-8.8-10.1-25-7.9-30.5 4.3-5.3 11.9-11.7 24.2-19.4 36.8-18 29.6-39.5 55.8-58.2 76.1-11.4 12.3 1.2 31.7 17.1 26.3 26.7-9.1 59.1-22.2 91-40 18.8-10.5 34.8-21.2 48.1-31.3 9.9-7.5 9.7-22.5-0.4-29.5zM242.5 558.9c-2.7-14.9-4.1-30.2-4.1-45.9 0-6.1 0.2-12.1 0.6-18 0.9-13.3-12.1-23.3-24.6-18.5-12.2 4.6-25.4 8.9-39.7 12.3-33.7 8.2-67.4 11.5-94.9 12.6-16.8 0.7-21.5 23.3-6.5 30.7 25.4 12.4 57.5 26.1 92.6 36.1 20.7 5.9 39.5 9.6 56.1 11.9 12.2 1.7 22.6-9.1 20.5-21.2zM334.2 260.8c-11.9-5.3-24.2-11.7-36.8-19.4-29.6-18-55.8-39.5-76.1-58.2-12.3-11.4-31.7 1.2-26.2 17.1 9.1 26.7 22.2 59.1 40 91 10.5 18.8 21.2 34.8 31.3 48.1 7.4 9.8 22.4 9.6 29.4-0.5 8.6-12.4 18.5-24.3 29.5-35.4 4.3-4.3 8.7-8.4 13.2-12.3 10.1-8.6 7.9-24.9-4.3-30.4zM947.2 491.4c-25.4-12.4-57.5-26.1-92.6-36.1-20.7-5.9-39.5-9.6-56.1-11.9-12.2-1.7-22.6 9.1-20.4 21.2 2.7 14.9 4.1 30.2 4.1 45.9 0 6.1-0.2 12.1-0.6 18-0.9 13.3 12.1 23.3 24.6 18.5 12.2-4.6 25.4-8.9 39.7-12.3 33.7-8.2 67.4-11.5 94.9-12.6 16.7-0.8 21.5-23.3 6.4-30.7zM785.5 732.1c-10.5-18.8-21.2-34.8-31.3-48.1-7.4-9.8-22.4-9.6-29.4 0.5-8.6 12.4-18.5 24.3-29.6 35.4-4.3 4.3-8.7 8.4-13.2 12.3-10.1 8.8-7.9 25 4.3 30.5 11.9 5.3 24.2 11.7 36.8 19.4 29.6 18 55.8 39.5 76.1 58.2 12.3 11.4 31.7-1.2 26.2-17.1-9.1-26.9-22.2-59.2-39.9-91.1z" fill="#FFF7D4" /></svg>