<?xml version="1.0" standalone="no"?><!DOCTYPE svg PUBLIC "-//W3C//DTD SVG 1.1//EN" "http://www.w3.org/Graphics/SVG/1.1/DTD/svg11.dtd"><svg class="icon" width="200px" height="200.00px" viewBox="0 0 1024 1024" version="1.1" xmlns="http://www.w3.org/2000/svg"><path d="M314.514286 341.333333a46.32381 46.32381 0 1 0 0 92.696381h4.87619A46.32381 46.32381 0 1 0 319.390476 341.333333h-4.87619zM414.47619 387.657143A46.32381 46.32381 0 0 1 460.8 341.333333h248.685714a46.32381 46.32381 0 0 1 0 92.696381h-248.685714a46.32381 46.32381 0 0 1-46.32381-46.323809zM460.8 585.142857a46.32381 46.32381 0 0 0 0 92.696381h248.685714a46.32381 46.32381 0 0 0 0-92.696381h-248.685714zM268.190476 631.466667a46.32381 46.32381 0 0 1 46.32381-46.32381h4.87619a46.32381 46.32381 0 0 1 0 92.696381h-4.87619a46.32381 46.32381 0 0 1-46.32381-46.323809z" fill="#575859" /><path d="M97.52381 195.047619a195.047619 195.047619 0 0 1 195.047619-195.047619h438.857142a195.047619 195.047619 0 0 1 195.047619 195.047619v623.030857a195.047619 195.047619 0 0 1-195.047619 195.047619H292.571429a195.047619 195.047619 0 0 1-195.047619-195.047619V195.047619z m89.234285 0v623.030857A105.813333 105.813333 0 0 0 292.571429 923.89181h438.857142a105.813333 105.813333 0 0 0 105.813334-105.813334V195.047619A105.813333 105.813333 0 0 0 731.428571 89.234286H292.571429A105.813333 105.813333 0 0 0 186.758095 195.047619z" fill="#575859" /></svg>