<?xml version="1.0" standalone="no"?><!DOCTYPE svg PUBLIC "-//W3C//DTD SVG 1.1//EN" "http://www.w3.org/Graphics/SVG/1.1/DTD/svg11.dtd"><svg class="icon" width="200px" height="200.00px" viewBox="0 0 1024 1024" version="1.1" xmlns="http://www.w3.org/2000/svg"><path d="M796.9 64.2H227.1a61.1 61.1 0 0 0-61.1 61.1v773.4a61.1 61.1 0 0 0 61.1 61.1h325.6a20.4 20.4 0 0 0 20.4-20.4V695.2a20.3 20.3 0 0 1 20.3-20.4h244.3a20.3 20.3 0 0 0 20.3-20.3V125.3a61.1 61.1 0 0 0-61.1-61.1zM481.5 735.9H339a30.6 30.6 0 0 1 0-61.1h142.5a30.6 30.6 0 0 1 0 61.1zM685 532.4H339a30.6 30.6 0 0 1 0-61.1h346a30.6 30.6 0 0 1 0 61.1z m0-223.9H339a30.6 30.6 0 0 1 0-61.1h346a30.6 30.6 0 0 1 0 61.1z" fill="#848484" /><path d="M685 247.4H339a30.6 30.6 0 0 0 0 61.1h346a30.6 30.6 0 0 0 0-61.1zM685 471.3H339a30.6 30.6 0 0 0 0 61.1h346a30.6 30.6 0 0 0 0-61.1zM481.5 674.8H339a30.6 30.6 0 0 0 0 61.1h142.5a30.6 30.6 0 0 0 0-61.1z" fill="#FFFFFF" /><path d="M847.8 715.5H623.9a10.2 10.2 0 0 0-10.1 10.2v223.9a10.1 10.1 0 0 0 17.3 7.2L855 732.9a10.2 10.2 0 0 0-7.2-17.4z" fill="#848484" /></svg>