<?xml version="1.0" standalone="no"?><!DOCTYPE svg PUBLIC "-//W3C//DTD SVG 1.1//EN" "http://www.w3.org/Graphics/SVG/1.1/DTD/svg11.dtd"><svg class="icon" width="200px" height="200.00px" viewBox="0 0 1024 1024" version="1.1" xmlns="http://www.w3.org/2000/svg"><path d="M963.84 209.92L739.84 6.4c-5.12-3.84-11.52-6.4-20.48-6.4H102.4C72.96 0 51.2 21.76 51.2 51.2v921.6c0 29.44 24.32 51.2 51.2 51.2h817.92c29.44 0 51.2-21.76 51.2-51.2V232.96c2.56-8.96-1.28-16.64-7.68-23.04z m-70.4 15.36H728.32V75.52l165.12 149.76zM107.52 966.4v-908.8h560.64v197.12c0 15.36 12.8 29.44 29.44 29.44h216.32v682.24h-806.4z" fill="#070102" /><path d="M249.6 514.56h250.88c15.36 0 29.44-12.8 29.44-29.44s-12.8-29.44-29.44-29.44H249.6c-15.36 0-29.44 12.8-29.44 29.44s14.08 29.44 29.44 29.44zM755.2 619.52H249.6c-15.36 0-29.44 12.8-29.44 29.44s12.8 29.44 29.44 29.44H755.2c15.36 0 29.44-12.8 29.44-29.44s-11.52-29.44-29.44-29.44zM755.2 780.8H249.6c-15.36 0-29.44 12.8-29.44 29.44 0 15.36 12.8 29.44 29.44 29.44H755.2c15.36 0 29.44-12.8 29.44-29.44 0-16.64-11.52-29.44-29.44-29.44z" fill="#070102" /></svg>