<?xml version="1.0" standalone="no"?><!DOCTYPE svg PUBLIC "-//W3C//DTD SVG 1.1//EN" "http://www.w3.org/Graphics/SVG/1.1/DTD/svg11.dtd"><svg class="icon" width="200px" height="200.00px" viewBox="0 0 1024 1024" version="1.1" xmlns="http://www.w3.org/2000/svg"><path d="M1016.32 798.72c0 23.04-20.48 43.52-43.52 43.52H591.36c-5.12 2.56-7.68 7.68-10.24 7.68L332.8 1013.76l-5.12-171.52h-281.6c-23.04 0-43.52-20.48-43.52-43.52V691.2v-7.68V66.56C2.56 43.52 23.04 23.04 46.08 23.04H972.8c23.04 0 43.52 20.48 43.52 43.52V798.72z m-732.16-409.6H171.52c-12.8 12.8-20.48 33.28-20.48 51.2 0 43.52 33.28 76.8 76.8 76.8s76.8-33.28 76.8-76.8c0-20.48-7.68-38.4-20.48-51.2z m261.12 0H435.2c-12.8 12.8-20.48 33.28-20.48 51.2 0 43.52 33.28 76.8 76.8 76.8s76.8-33.28 76.8-76.8c-2.56-20.48-10.24-38.4-23.04-51.2z m263.68 0h-112.64c-12.8 12.8-20.48 33.28-20.48 51.2 0 43.52 33.28 76.8 76.8 76.8s76.8-33.28 76.8-76.8c0-20.48-7.68-38.4-20.48-51.2z"  /></svg>