<?xml version="1.0" standalone="no"?><!DOCTYPE svg PUBLIC "-//W3C//DTD SVG 1.1//EN" "http://www.w3.org/Graphics/SVG/1.1/DTD/svg11.dtd"><svg class="icon" width="200px" height="200.00px" viewBox="0 0 1024 1024" version="1.1" xmlns="http://www.w3.org/2000/svg"><path d="M490.666667 577.472l-60.330667-60.352a21.333333 21.333333 0 0 0-30.186667 30.165333l75.434667 75.434667a21.333333 21.333333 0 0 0 30.165333 0l165.930667-165.930667a21.333333 21.333333 0 0 0-30.165333-30.165333L490.666667 577.450667z m32.213333 277.696a42.666667 42.666667 0 0 1-23.552 0C322.901333 804.352 234.666667 719.893333 234.666667 601.813333V282.304c99.157333 2.090667 181.973333-24.682667 248.426666-80.341333a42.666667 42.666667 0 0 1 55.189334 0.32c62.186667 53.376 145.6 80.128 250.218666 80.277333V601.813333c0 118.122667-88.533333 202.56-265.6 253.354667z" fill="#2A2A37" /></svg>